<svg width="429" height="442" viewBox="0 0 429 442" fill="none" xmlns="http://www.w3.org/2000/svg">
<path d="M342.329 95.472C368.628 125.97 373.932 173.485 374.595 221.663C375.479 269.841 371.501 318.682 344.981 346.086C318.682 373.269 269.841 379.236 223.431 376.805C177.021 374.374 132.821 363.766 96.135 336.362C59.228 309.179 29.614 264.979 32.045 223.431C34.476 181.883 69.173 142.766 105.859 112.268C142.766 81.549 181.883 59.67 225.199 55.471C268.515 51.272 316.03 64.974 342.329 95.472Z" fill="white"/>
<g clip-path="url(#clip0_27_67)">
<path d="M224.206 293.482C223.429 293.482 222.669 293.713 222.022 294.145C221.376 294.578 220.872 295.192 220.575 295.911C220.277 296.63 220.199 297.421 220.351 298.184C220.503 298.947 220.877 299.648 221.427 300.199C221.976 300.749 222.677 301.123 223.439 301.275C224.202 301.427 224.992 301.349 225.71 301.051C226.428 300.754 227.042 300.249 227.474 299.602C227.906 298.955 228.137 298.195 228.137 297.417C228.137 296.373 227.722 295.373 226.985 294.635C226.248 293.897 225.248 293.482 224.206 293.482ZM224.206 299.838C223.728 299.838 223.26 299.696 222.862 299.43C222.464 299.164 222.154 298.786 221.971 298.343C221.788 297.901 221.74 297.414 221.834 296.944C221.927 296.475 222.157 296.043 222.496 295.705C222.834 295.366 223.265 295.135 223.734 295.042C224.203 294.949 224.69 294.997 225.132 295.18C225.574 295.363 225.951 295.673 226.217 296.072C226.483 296.47 226.625 296.938 226.625 297.417C226.625 298.059 226.37 298.675 225.916 299.129C225.463 299.583 224.848 299.838 224.206 299.838Z" fill="#E4E4E4"/>
<path d="M209.089 290.456H224.206V305.432C224.206 305.955 223.999 306.456 223.629 306.826C223.26 307.196 222.759 307.404 222.237 307.404H211.058C210.536 307.404 210.035 307.196 209.665 306.826C209.296 306.456 209.089 305.955 209.089 305.432V290.456Z" fill="#E4E4E4"/>
<path d="M259.528 307.746H32.3066C32.2224 307.737 32.1445 307.697 32.0879 307.634C32.0313 307.571 32 307.489 32 307.404C32 307.319 32.0313 307.237 32.0879 307.174C32.1445 307.111 32.2224 307.071 32.3066 307.061H259.528C259.612 307.071 259.69 307.111 259.746 307.174C259.803 307.237 259.834 307.319 259.834 307.404C259.834 307.489 259.803 307.571 259.746 307.634C259.69 307.697 259.612 307.737 259.528 307.746Z" fill="#CACACA"/>
<path d="M62.5852 301.278L61.18 308.233L87.3123 316.97L89.3867 306.704L62.5852 301.278Z" fill="#FFB6B6"/>
<path d="M65.2125 299.964L62.4447 313.661L62.4445 313.661C61.9765 315.976 60.609 318.01 58.6428 319.316C56.6766 320.622 54.2727 321.092 51.9599 320.624L51.6765 320.567L56.2083 298.141L65.2125 299.964Z" fill="#2F2E41"/>
<path d="M92.1987 205.475C101.998 205.475 109.943 197.523 109.943 187.714C109.943 177.905 101.998 169.953 92.1987 169.953C82.399 169.953 74.4548 177.905 74.4548 187.714C74.4548 197.523 82.399 205.475 92.1987 205.475Z" fill="#FEB8B8"/>
<path d="M108.772 172.391C106.119 168.079 101.966 164.902 97.1133 163.471L94.935 165.062V162.996C93.7695 162.817 92.5899 162.748 91.4116 162.79L89.5322 164.492V162.932C86.7496 163.278 84.0688 164.197 81.6589 165.632C79.249 167.067 77.1623 168.986 75.5303 171.268C71.4489 177.158 70.76 185.351 74.7743 191.288C75.8761 187.898 77.2136 184.717 78.3158 181.328C79.1819 181.446 80.0597 181.45 80.9269 181.34L82.2675 178.209L82.6421 181.208C86.7976 180.846 92.9612 180.05 96.9006 179.321L96.5174 177.02L98.8094 178.932C100.016 178.654 100.733 178.402 100.674 178.209C103.604 182.937 107.189 185.956 110.119 190.684C111.232 184.018 112.512 178.475 108.772 172.391Z" fill="#2F2E41"/>
<path d="M97.972 303.937C123.205 303.937 143.66 298.21 143.66 291.145C143.66 284.08 123.205 278.353 97.972 278.353C72.7392 278.353 52.284 284.08 52.284 291.145C52.284 298.21 72.7392 303.937 97.972 303.937Z" fill="#2F2E41"/>
<path d="M130.361 233.386C129.751 229.712 129.121 225.967 127.415 222.657C126.294 220.489 124.514 218.423 122.115 217.994C121.642 217.952 121.178 217.844 120.735 217.674C120.032 217.335 110.584 211.937 109.082 210.997C107.793 210.19 105.758 208.695 104.732 208.695C103.699 208.672 99.7404 209.595 84.2889 208.386C81.6898 209.43 79.173 210.669 76.7597 212.091C76.7099 212.058 60.7224 220.652 60.1218 220.629C58.9843 220.581 57.927 221.31 57.2749 222.228C56.623 223.146 56.3172 224.282 55.997 225.381C59.4889 233.165 62.6839 240.959 66.1761 248.743C66.3396 249.036 66.4265 249.366 66.4287 249.702C66.3585 250.05 66.2099 250.378 65.9942 250.66C64.2817 253.414 64.3361 256.877 64.5232 260.114C64.7104 263.35 64.9419 266.769 63.497 269.67C63.1039 270.466 62.5928 271.195 62.219 271.991C61.3436 273.795 61.0273 279.564 61.5385 281.502L125.598 283.339C124.221 279.55 130.361 233.386 130.361 233.386Z" fill="#6C63FF"/>
<path d="M50.4597 249.088C50.3319 250.013 50.319 250.951 50.4214 251.88L51.3395 265.078C51.4257 266.322 51.5106 267.563 51.6272 268.804C51.8475 271.212 52.1766 273.601 52.585 275.987C52.5943 276.325 52.7373 276.646 52.9829 276.88C53.2285 277.113 53.5564 277.239 53.8948 277.23C57.9365 278.087 62.1123 278.052 66.237 277.819C72.5313 277.467 88.6343 276.802 89.6181 275.523C90.6019 274.244 90.0286 272.175 88.7458 271.14C87.463 270.106 66.2127 267.584 66.2127 267.584C66.4204 265.937 67.0467 264.386 67.6409 262.822C68.7082 260.049 69.705 257.184 69.7242 254.213C69.7433 251.242 68.6251 248.118 66.1936 246.416C64.1935 245.019 61.6183 244.76 59.181 244.817C57.4076 244.868 54.3437 244.443 52.7239 245.137C51.4422 245.702 50.6992 247.832 50.4597 249.088Z" fill="#FBBEBE"/>
<path d="M130.475 278.923C131.538 278.517 132.711 278.663 133.852 278.817C137.523 279.319 141.248 279.834 144.651 281.302C146.248 281.987 147.769 282.901 148.849 284.247C149.807 285.459 150.366 286.943 150.897 288.404L152.124 291.769C152.646 293.033 153.005 294.357 153.194 295.712C153.578 299.738 150.827 303.534 147.367 305.626C143.907 307.717 139.833 308.462 135.865 309.243C131.896 310.023 127.912 310.886 123.96 311.801C122.117 312.28 120.247 312.648 118.359 312.904C114.129 313.384 109.708 312.677 105.688 314.078C104.091 314.638 102.522 315.469 100.865 315.856C99.7635 316.088 98.6498 316.258 97.5293 316.365L89.9222 317.234C88.3753 317.441 86.818 317.561 85.2576 317.592C81.935 317.592 78.6664 316.805 75.44 316.017C75.0971 315.957 74.7708 315.825 74.4821 315.63C73.9711 315.227 73.8592 314.514 73.7857 313.868C73.4598 311.009 73.1747 308.147 72.9305 305.282C72.8539 304.351 72.7964 303.344 73.3044 302.561C73.9434 301.602 75.1896 301.3 76.327 301.115C81.15 300.325 86.0359 299.986 90.9217 300.101C92.7778 298.243 95.8388 298.234 98.2703 297.223C99.1648 296.812 100.03 296.34 100.862 295.812C105.211 293.273 110.071 291.735 115.089 291.313C116.071 291.283 117.047 291.143 117.999 290.897C119.881 290.312 121.597 288.719 123.53 289.11C123.769 288.448 123.935 287.562 124.487 287.107C124.761 286.874 125.101 286.717 125.353 286.468C125.887 285.928 125.935 285.077 125.855 284.322C125.775 283.567 125.596 282.794 125.791 282.058C125.872 281.779 125.991 281.513 126.146 281.268C127.101 279.613 128.548 278.763 130.475 278.923Z" fill="#2F2E41"/>
<path d="M55.8122 225.618C55.501 225.944 55.2597 226.331 55.1031 226.754C52.5205 232.579 50.9951 238.819 50.5982 245.18C50.6052 245.491 50.5338 245.798 50.3906 246.073C50.2494 246.256 50.0922 246.426 49.9209 246.581C49.7716 246.758 49.6586 246.963 49.5884 247.184C49.5181 247.405 49.4921 247.638 49.5117 247.869C49.5312 248.1 49.5961 248.325 49.7025 248.531C49.8089 248.737 49.9548 248.919 50.1319 249.069C50.1609 249.093 50.1907 249.117 50.2213 249.14C50.7484 248.147 52.0103 247.822 53.132 247.736C58.5027 247.311 63.7488 249.811 69.1355 249.623C68.7554 248.308 68.2088 247.045 67.8989 245.715C66.5281 239.808 69.9469 233.377 67.851 227.688C67.4323 226.549 66.7327 225.43 65.6305 224.931C65.1741 224.747 64.6966 224.62 64.2089 224.554C62.8477 224.308 60.1381 223.256 58.8222 223.678C58.3364 223.835 58.1448 224.292 57.7422 224.568C57.1306 224.959 56.3192 225.103 55.8122 225.618Z" fill="#6C63FF"/>
<path d="M130.399 245.137C128.779 244.443 125.715 244.868 123.942 244.817C121.505 244.76 118.93 245.019 116.93 246.416C114.498 248.118 113.38 251.242 113.399 254.213C113.418 257.184 114.415 260.049 115.482 262.822C116.076 264.386 116.703 265.937 116.91 267.584C116.91 267.584 95.6602 270.106 94.3774 271.14C93.0946 272.175 92.5213 274.244 93.5051 275.523C94.4889 276.802 125.187 278.087 129.228 277.23C129.567 277.239 129.895 277.113 130.14 276.88C130.386 276.646 130.529 276.325 130.538 275.987C130.947 273.601 131.276 271.212 131.496 268.804C131.613 267.563 131.697 266.322 131.784 265.078L132.702 251.88C132.804 250.951 132.791 250.013 132.663 249.088C132.424 247.832 131.681 245.702 130.399 245.137Z" fill="#FBBEBE"/>
<path d="M125.381 224.568C124.978 224.292 124.787 223.835 124.301 223.678C122.985 223.256 120.275 224.308 118.914 224.554C118.427 224.62 117.949 224.747 117.493 224.931C116.39 225.43 115.691 226.549 115.272 227.688C113.176 233.377 116.595 239.808 115.224 245.715C114.914 247.045 114.368 248.308 113.988 249.623C119.374 249.811 124.621 247.311 129.991 247.736C131.113 247.822 132.375 248.147 132.902 249.14C132.932 249.117 132.962 249.093 132.991 249.069C133.168 248.919 133.314 248.737 133.421 248.531C133.527 248.325 133.592 248.1 133.612 247.869C133.631 247.638 133.605 247.405 133.535 247.184C133.465 246.963 133.352 246.758 133.202 246.581C133.031 246.426 132.874 246.256 132.733 246.073C132.589 245.798 132.518 245.491 132.525 245.18C132.128 238.819 130.603 232.579 128.02 226.754C127.863 226.331 127.622 225.944 127.311 225.618C126.804 225.103 125.993 224.959 125.381 224.568Z" fill="#6C63FF"/>
<path d="M134.365 311.207L133.431 318.241L105.88 317.982L107.259 307.601L134.365 311.207Z" fill="#FFB6B6"/>
<path d="M141.415 310.319L138.403 333L138.117 332.962C135.778 332.651 133.658 331.422 132.224 329.547C130.789 327.671 130.158 325.302 130.469 322.961L130.469 322.96L132.308 309.107L141.415 310.319Z" fill="#2F2E41"/>
<path d="M69.5497 282.482C69.5497 282.802 69.0482 282.482 69.0024 282.14C68.6511 279.553 66.5996 277.419 64.2099 276.383C61.8201 275.347 59.0979 275.293 56.51 275.539C52.5963 275.91 48.203 277.41 46.7718 281.072C46.4331 281.928 43.2607 289.55 43.5702 291.264C44.4042 295.837 47.5288 299.748 51.3149 302.457C55.101 305.166 59.5248 306.784 63.9376 308.243C75.6046 312.095 87.5748 314.957 99.7214 316.798C101.689 317.096 103.677 317.371 105.562 318.004C107.248 318.57 108.827 319.417 110.476 320.082C114.31 321.623 118.434 322.174 122.521 322.714C123.217 322.804 124.016 322.868 124.53 322.395C125.195 321.778 124.975 320.703 124.786 319.817C124.092 316.449 124.674 312.943 126.419 309.98C127.103 308.829 127.992 307.649 127.863 306.316C127.71 304.762 126.163 303.662 124.623 303.412C123.083 303.163 121.518 303.531 119.971 303.732C119.441 303.854 118.885 303.799 118.389 303.575C118.159 303.42 117.951 303.235 117.769 303.026C116.704 301.997 115.341 301.332 113.875 301.127C112.409 300.922 110.916 301.187 109.609 301.884C109.038 302.204 108.173 301.491 107.578 301.222L100.858 298.177C93.1394 294.682 85.3821 291.17 77.2157 288.957C76.5641 288.829 75.9448 288.571 75.3945 288.199C74.9888 287.88 74.698 287.446 74.3241 287.09C73.5093 286.319 72.3743 286.012 71.3976 285.465C70.421 284.918 69.326 283.579 69.5497 282.482Z" fill="#2F2E41"/>
<path d="M86.9435 277.861C89.5885 277.861 91.7326 275.715 91.7326 273.067C91.7326 270.42 89.5885 268.273 86.9435 268.273C84.2986 268.273 82.1544 270.42 82.1544 273.067C82.1544 275.715 84.2986 277.861 86.9435 277.861Z" fill="#FBBEBE"/>
<path d="M97.5479 277.861C100.193 277.861 102.337 275.715 102.337 273.067C102.337 270.42 100.193 268.273 97.5479 268.273C94.903 268.273 92.7589 270.42 92.7589 273.067C92.7589 275.715 94.903 277.861 97.5479 277.861Z" fill="#FBBEBE"/>
<path d="M127.11 283.869H61.3149C60.5467 283.868 59.8103 283.562 59.2671 283.019C58.7239 282.475 58.4183 281.738 58.4174 280.969V241.015C58.4183 240.246 58.7239 239.509 59.2671 238.965C59.8103 238.422 60.5467 238.116 61.3149 238.115H127.11C127.878 238.116 128.614 238.422 129.158 238.965C129.701 239.509 130.006 240.246 130.007 241.015V280.969C130.006 281.738 129.701 282.475 129.158 283.019C128.614 283.562 127.878 283.868 127.11 283.869Z" fill="#3F3D56"/>
<path d="M94.0528 262.911C95.1115 262.911 95.9698 262.052 95.9698 260.992C95.9698 259.932 95.1115 259.073 94.0528 259.073C92.9941 259.073 92.1358 259.932 92.1358 260.992C92.1358 262.052 92.9941 262.911 94.0528 262.911Z" fill="white"/>
<path d="M328.934 204.06H243.451C242.998 204.059 242.563 203.879 242.242 203.558C241.922 203.237 241.741 202.802 241.741 202.348V186.22H242.425V202.348C242.425 202.62 242.533 202.881 242.726 203.074C242.918 203.266 243.179 203.375 243.451 203.375H328.934C329.206 203.375 329.467 203.266 329.659 203.074C329.852 202.881 329.96 202.62 329.96 202.348V186.108H330.644V202.348C330.644 202.802 330.464 203.237 330.143 203.558C329.822 203.879 329.387 204.059 328.934 204.06Z" fill="#3F3D56"/>
<path d="M359.922 185.878H159.047V186.563H359.922V185.878Z" fill="#3F3D56"/>
<path d="M159.061 192.057C162.311 192.057 164.946 189.42 164.946 186.167C164.946 182.914 162.311 180.277 159.061 180.277C155.811 180.277 153.177 182.914 153.177 186.167C153.177 189.42 155.811 192.057 159.061 192.057Z" fill="#6C63FF"/>
<path d="M218.858 192.057C222.108 192.057 224.743 189.42 224.743 186.167C224.743 182.914 222.108 180.277 218.858 180.277C215.608 180.277 212.974 182.914 212.974 186.167C212.974 189.42 215.608 192.057 218.858 192.057Z" fill="#6C63FF"/>
<path d="M259.44 209.369C262.69 209.369 265.324 206.732 265.324 203.479C265.324 200.226 262.69 197.589 259.44 197.589C256.19 197.589 253.555 200.226 253.555 203.479C253.555 206.732 256.19 209.369 259.44 209.369Z" fill="#3F3D56"/>
<path d="M290.291 209.369C293.541 209.369 296.175 206.732 296.175 203.479C296.175 200.226 293.541 197.589 290.291 197.589C287.041 197.589 284.406 200.226 284.406 203.479C284.406 206.732 287.041 209.369 290.291 209.369Z" fill="#CCCCCC"/>
<path d="M275.341 192.057C278.591 192.057 281.225 189.42 281.225 186.167C281.225 182.914 278.591 180.277 275.341 180.277C272.091 180.277 269.456 182.914 269.456 186.167C269.456 189.42 272.091 192.057 275.341 192.057Z" fill="#6C63FF"/>
<path d="M359.116 192.057C362.365 192.057 365 189.42 365 186.167C365 182.914 362.365 180.277 359.116 180.277C355.866 180.277 353.231 182.914 353.231 186.167C353.231 189.42 355.866 192.057 359.116 192.057Z" fill="#6C63FF"/>
<path d="M330.302 192.057C333.552 192.057 336.187 189.42 336.187 186.167C336.187 182.914 333.552 180.277 330.302 180.277C327.052 180.277 324.418 182.914 324.418 186.167C324.418 189.42 327.052 192.057 330.302 192.057Z" fill="#6C63FF"/>
<path d="M264.766 132H253.851V139.529H264.766V132Z" fill="#3F3D56"/>
<path d="M164.562 132H153.647V139.529H164.562V132Z" fill="#6C63FF"/>
<path d="M201.531 132H190.617V139.529H201.531V132Z" fill="#CCCCCC"/>
<path d="M177.309 186.563C177.218 186.563 177.131 186.527 177.067 186.463C177.003 186.398 176.967 186.311 176.967 186.22V169.319C176.967 168.865 177.148 168.43 177.468 168.109C177.789 167.788 178.224 167.607 178.677 167.607H195.328C195.418 167.607 195.505 167.643 195.57 167.707C195.634 167.771 195.67 167.858 195.67 167.949C195.67 168.04 195.634 168.127 195.57 168.191C195.505 168.255 195.418 168.291 195.328 168.291H178.677C178.405 168.292 178.144 168.4 177.952 168.593C177.759 168.785 177.651 169.046 177.651 169.319V186.22C177.651 186.311 177.615 186.398 177.551 186.463C177.486 186.527 177.399 186.563 177.309 186.563Z" fill="#3F3D56"/>
<path d="M196.11 173.711C199.36 173.711 201.995 171.074 201.995 167.821C201.995 164.568 199.36 161.931 196.11 161.931C192.86 161.931 190.226 164.568 190.226 167.821C190.226 171.074 192.86 173.711 196.11 173.711Z" fill="#E6E6E6"/>
<path d="M309.009 186.22H308.325V169.319C308.325 168.865 308.506 168.43 308.826 168.109C309.147 167.788 309.582 167.607 310.035 167.607H326.686V168.291H310.035C309.763 168.292 309.502 168.4 309.31 168.593C309.117 168.785 309.009 169.046 309.009 169.319V186.22Z" fill="#3F3D56"/>
<path d="M327.468 173.711C330.718 173.711 333.353 171.074 333.353 167.821C333.353 164.568 330.718 161.931 327.468 161.931C324.218 161.931 321.584 164.568 321.584 167.821C321.584 171.074 324.218 173.711 327.468 173.711Z" fill="#E6E6E6"/>
</g>
<defs>
<clipPath id="clip0_27_67">
<rect width="333" height="201" fill="white" transform="translate(32 132)"/>
</clipPath>
</defs>
</svg>
