<svg width="26" height="26" viewBox="0 0 26 26" fill="none" xmlns="http://www.w3.org/2000/svg">
<path d="M1.08333 13C1.08333 12.4017 1.56836 11.9167 2.16666 11.9167H23.8333C24.4317 11.9167 24.9167 12.4017 24.9167 13C24.9167 13.5983 24.4317 14.0833 23.8333 14.0833H2.16666C1.56836 14.0833 1.08333 13.5983 1.08333 13Z" fill="white"/>
<path d="M1.08333 4.33333C1.08333 3.73503 1.56836 3.25 2.16666 3.25H23.8333C24.4317 3.25 24.9167 3.73503 24.9167 4.33333C24.9167 4.93164 24.4317 5.41667 23.8333 5.41667H2.16666C1.56836 5.41667 1.08333 4.93164 1.08333 4.33333Z" fill="white"/>
<path d="M1.08333 21.6667C1.08333 21.0684 1.56836 20.5833 2.16666 20.5833H23.8333C24.4317 20.5833 24.9167 21.0684 24.9167 21.6667C24.9167 22.265 24.4317 22.75 23.8333 22.75H2.16666C1.56836 22.75 1.08333 22.265 1.08333 21.6667Z" fill="white"/>
</svg>
